<svg width="69" height="21" viewBox="0 0 69 21" fill="none" xmlns="http://www.w3.org/2000/svg">
<path d="M4.28 14.66H8.32C9.08 14.66 9.64667 14.38 10.02 13.82C10.1933 13.8867 10.3333 14.0067 10.44 14.18C10.5467 14.34 10.6 14.5067 10.6 14.68C10.6 15.56 9.86667 16 8.4 16H4.2C3.17333 16 2.41333 15.7933 1.92 15.38C1.42667 14.9667 1.18 14.2933 1.18 13.36V3.18C1.18 2.78 1.01333 2.51333 0.68 2.38C1 1.9 1.53333 1.66 2.28 1.66H8.6C9.93333 1.66 10.6 2.00667 10.6 2.7C10.6 3.11333 10.4067 3.38667 10.02 3.52C9.64667 3.18667 9.08 3.02 8.32 3.02H2.86V7.9H7.08C7.81333 7.9 8.33333 7.96 8.64 8.08C8.94667 8.2 9.1 8.43333 9.1 8.78C9.1 9.12667 8.94 9.38 8.62 9.54C8.26 9.35333 7.69333 9.26 6.92 9.26H2.86V13.3C2.86 13.78 2.96667 14.1267 3.18 14.34C3.40667 14.5533 3.77333 14.66 4.28 14.66ZM14.253 6.7V3.98C14.253 2.95333 14.533 2.16667 15.093 1.62C15.6663 1.07333 16.353 0.799999 17.153 0.799999C17.9663 0.799999 18.593 0.959999 19.033 1.28C19.4863 1.6 19.713 1.98 19.713 2.42C19.713 2.68667 19.6063 2.86667 19.393 2.96C18.8596 2.34667 18.233 2.04 17.513 2.04C17.033 2.04 16.6463 2.19333 16.353 2.5C16.073 2.80667 15.933 3.27333 15.933 3.9V6.7H19.073C19.153 6.79333 19.193 6.91333 19.193 7.06C19.193 7.67333 18.1996 7.98 16.213 7.98H15.933V18.54C15.933 19.34 15.7596 19.94 15.413 20.34C15.0796 20.7533 14.653 20.96 14.133 20.96C13.413 20.96 12.9063 20.62 12.613 19.94C13.2263 19.94 13.653 19.8 13.893 19.52C14.133 19.2533 14.253 18.8 14.253 18.16V7.96C13.0796 7.89333 12.493 7.63333 12.493 7.18C12.493 6.99333 12.5796 6.8 12.753 6.6C13.0596 6.66667 13.5063 6.7 14.093 6.7H14.253ZM21.2256 6.7V3.98C21.2256 2.95333 21.5056 2.16667 22.0656 1.62C22.639 1.07333 23.3256 0.799999 24.1256 0.799999C24.939 0.799999 25.5656 0.959999 26.0056 1.28C26.459 1.6 26.6856 1.98 26.6856 2.42C26.6856 2.68667 26.579 2.86667 26.3656 2.96C25.8323 2.34667 25.2056 2.04 24.4856 2.04C24.0056 2.04 23.619 2.19333 23.3256 2.5C23.0456 2.80667 22.9056 3.27333 22.9056 3.9V6.7H26.0456C26.1256 6.79333 26.1656 6.91333 26.1656 7.06C26.1656 7.67333 25.1723 7.98 23.1856 7.98H22.9056V18.54C22.9056 19.34 22.7323 19.94 22.3856 20.34C22.0523 20.7533 21.6256 20.96 21.1056 20.96C20.3856 20.96 19.879 20.62 19.5856 19.94C20.199 19.94 20.6256 19.8 20.8656 19.52C21.1056 19.2533 21.2256 18.8 21.2256 18.16V7.96C20.0523 7.89333 19.4656 7.63333 19.4656 7.18C19.4656 6.99333 19.5523 6.8 19.7256 6.6C20.0323 6.66667 20.479 6.7 21.0656 6.7H21.2256ZM34.2983 7.4C34.3916 7.14667 34.4383 6.89333 34.4383 6.64C34.4383 6.38667 34.3449 6.16 34.1583 5.96C34.4516 5.76 34.7783 5.66 35.1383 5.66C35.4983 5.66 35.7916 5.84 36.0183 6.2C36.1249 6.38667 36.1783 6.6 36.1783 6.84C36.1783 7.06667 36.1183 7.32667 35.9983 7.62L31.8383 18.46C31.1849 20.1267 30.2916 20.96 29.1583 20.96C28.7316 20.96 28.3983 20.8533 28.1583 20.64C27.9183 20.4267 27.7983 20.1533 27.7983 19.82C27.7983 19.5 27.9049 19.24 28.1183 19.04C28.3583 19.2933 28.6516 19.42 28.9983 19.42C29.3449 19.42 29.6183 19.3267 29.8183 19.14C30.0316 18.9533 30.2249 18.62 30.3983 18.14L31.1183 16.18C31.1049 16.18 31.0849 16.18 31.0583 16.18C30.7916 16.18 30.5449 16.0933 30.3183 15.92C30.0916 15.7333 29.9249 15.4733 29.8183 15.14L27.0583 7.14C26.9249 6.64667 26.7183 6.33333 26.4383 6.2C26.6649 5.84 27.0183 5.66 27.4983 5.66C28.0716 5.66 28.4849 6.09333 28.7383 6.96L31.4783 15.18L34.2983 7.4Z" fill="#42A6DE"/>
<path d="M48.8614 16H47.3214L46.3614 12.4C46.1747 11.7067 45.9614 11.1667 45.7214 10.78C45.4814 10.3933 45.1481 10.1133 44.7214 9.94C44.3081 9.75333 43.7414 9.66 43.0214 9.66H39.7814V16H38.3414V2H44.3414C45.6481 2 46.6414 2.32667 47.3214 2.98C48.0147 3.63333 48.3614 4.55333 48.3614 5.74C48.3614 6.74 48.1214 7.54 47.6414 8.14C47.1747 8.72667 46.5081 9.09333 45.6414 9.24C46.2281 9.45333 46.6814 9.80667 47.0014 10.3C47.3347 10.7933 47.6281 11.4933 47.8814 12.4L48.8614 16ZM44.1814 8.5C45.0481 8.5 45.7214 8.26667 46.2014 7.8C46.6814 7.33333 46.9214 6.68 46.9214 5.84C46.9214 4.98667 46.6814 4.32667 46.2014 3.86C45.7214 3.39333 45.0481 3.16 44.1814 3.16H39.7814V8.5H44.1814ZM52.2027 4.48C51.9493 4.48 51.7293 4.38667 51.5427 4.2C51.356 4.01333 51.2627 3.79333 51.2627 3.54C51.2627 3.28667 51.356 3.07333 51.5427 2.9C51.7293 2.71333 51.9493 2.62 52.2027 2.62C52.456 2.62 52.6693 2.71333 52.8427 2.9C53.0293 3.07333 53.1227 3.28667 53.1227 3.54C53.1227 3.79333 53.0293 4.01333 52.8427 4.2C52.6693 4.38667 52.456 4.48 52.2027 4.48ZM52.6027 16.22C52.1893 15.9933 51.9027 15.74 51.7427 15.46C51.596 15.1667 51.5227 14.7667 51.5227 14.26V6.6H52.8627V14.3C52.8627 14.54 52.9027 14.74 52.9827 14.9C53.076 15.0467 53.2427 15.22 53.4827 15.42L52.6027 16.22ZM57.4836 16.22C57.0703 15.9933 56.7836 15.74 56.6236 15.46C56.4769 15.1667 56.4036 14.7667 56.4036 14.26V3.42C56.4036 3.16667 56.3569 2.96667 56.2636 2.82C56.1836 2.66 56.0236 2.48667 55.7836 2.3L56.6636 1.5C57.0769 1.72667 57.3569 1.98667 57.5036 2.28C57.6636 2.56 57.7436 2.95333 57.7436 3.46V14.3C57.7436 14.54 57.7836 14.74 57.8636 14.9C57.9569 15.0467 58.1236 15.22 58.3636 15.42L57.4836 16.22ZM64.8088 15.14C65.3821 15.14 65.8888 15.0533 66.3288 14.88C66.7688 14.7067 67.1754 14.4267 67.5488 14.04L68.3888 14.82C67.9621 15.3 67.4554 15.6533 66.8688 15.88C66.2821 16.1067 65.5688 16.22 64.7288 16.22C63.4488 16.22 62.4488 15.92 61.7288 15.32C61.0221 14.7067 60.6688 13.8533 60.6688 12.76V9.72C60.6688 8.69333 61.0154 7.88667 61.7088 7.3C62.4154 6.7 63.3821 6.4 64.6087 6.4C65.8621 6.4 66.8221 6.71333 67.4888 7.34C68.1688 7.96667 68.5088 8.85333 68.5088 10C68.5088 10.7333 68.3688 11.24 68.0888 11.52C67.8221 11.7867 67.3154 11.92 66.5688 11.92H62.0088V12.76C62.0088 13.56 62.2354 14.16 62.6888 14.56C63.1554 14.9467 63.8621 15.14 64.8088 15.14ZM64.5888 7.46C63.7888 7.46 63.1554 7.67333 62.6888 8.1C62.2354 8.51333 62.0088 9.08 62.0088 9.8V10.94H66.0088C66.4621 10.94 66.7688 10.8667 66.9288 10.72C67.0888 10.56 67.1688 10.2667 67.1688 9.84C67.1688 9.09333 66.9421 8.51333 66.4888 8.1C66.0354 7.67333 65.4021 7.46 64.5888 7.46Z" fill="#713EA3"/>
</svg>
